<?xml version="1.0" encoding="UTF-8"?>
<svg width="1200pt" height="1200pt" version="1.1" viewBox="0 0 1200 1200" xmlns="http://www.w3.org/2000/svg">
 <path d="m650.26 615.24c-0.89062 9.0938-8.5781 16.266-17.906 16.266-9.9375 0-18-8.0625-18-18 0-1.5469 0.1875-3 0.51563-4.3594 0.84375-5.5781 0.09375-12.422-3.1875-18.328-3.375-6.0469-9.8438-11.297-20.672-13.359l-0.70312-0.14062c-14.109-2.5312-30.328-1.3125-42.797 4.875-8.7188 4.3125-15.469 11.391-17.391 21.609l-0.09375 0.51562c-2.625 14.766 1.3594 31.5 11.906 45.188 9.4688 12.281 24.328 22.219 44.672 26.297l2.3438 0.46875c24.891 4.4531 51.047 1.4531 72.047-8.625l0.89062-0.42188c19.125-9.4219 33.797-25.078 38.25-46.406l0.42188-2.25c4.5-25.359-2.7188-52.453-19.781-75.094-17.672-23.391-45.797-41.953-82.406-49.219l-2.3438-0.46875c-41.672-7.6406-83.859-1.5938-117.38 15.891-32.344 16.828-56.531 44.438-63.75 80.344l-0.42188 2.25c-7.5469 41.625 5.25 84.75 33.469 120.24 28.969 36.422 74.109 64.875 130.31 75.844l2.2031 0.42188c12.75 2.3438 24.891 3.5625 36.375 3.7031 44.906 0.51563 82.594-14.859 110.91-40.594l0.9375-0.79687c28.125-25.875 47.203-62.297 55.078-103.59l0.14062-0.60938c2.4375-13.125 3.7969-26.672 3.9844-40.359v-1.6406c0.28125-61.266-22.406-109.97-62.906-143.34-41.531-34.266-102.05-53.156-176.11-53.953l-2.9062-0.046875c-9.8906-0.09375-17.859-8.1562-17.766-18.094 0.09375-9.8906 8.1562-17.859 18.094-17.766l2.9062 0.046875c82.5 0.89062 150.74 22.641 198.61 62.109 48.891 40.312 76.312 98.531 75.984 171.24v1.7344c-0.1875 16.078-1.7344 31.781-4.5469 46.781l-0.09375 0.65625c-9.2812 48.75-32.203 92.016-66.141 123.28l-0.98438 0.98438c-34.781 31.547-80.812 50.438-135.37 49.828-14.109-0.14062-28.688-1.5938-43.547-4.4062l-0.46875-0.09375c-65.578-12.516-118.55-45.938-152.76-89.016-34.688-43.688-50.25-97.312-40.547-149.63l0.14062-0.9375c9.1875-48.141 40.594-84.703 82.688-106.59 40.594-21.141 91.312-28.453 141.1-19.172l0.89062 0.14062c46.5 8.8594 82.594 32.766 105.42 63.047 23.391 30.984 33.047 68.812 26.203 104.53-6.5625 34.219-28.875 58.781-58.078 73.125l-0.98438 0.51562c-28.031 13.5-62.438 17.484-94.734 11.484l-0.89062-0.14063c-30.281-5.7656-52.781-20.906-67.406-39.891-16.969-22.031-23.203-49.312-18.797-73.594l0.14062-0.79688c4.3594-22.734 18.516-37.969 36.797-47.062 19.734-9.7969 44.531-11.812 65.578-7.9219l0.5625 0.09375c22.875 4.3594 37.219 16.734 45.281 31.219 7.6406 13.688 9.2812 29.344 7.2656 41.859zm-318.89 59.953c2.625 9.5156-2.9531 19.453-12.516 22.078-9.5156 2.625-19.453-2.9531-22.078-12.516-3.7969-13.594-6.7031-27.609-8.6719-41.906-1.9219-14.25-2.9531-28.594-2.9531-42.844 0-86.906 35.25-165.66 92.203-222.61s135.66-92.203 222.61-92.203c86.906 0 165.66 35.25 222.61 92.203s92.203 135.66 92.203 222.61c0 26.391-3.2812 52.172-9.4688 76.828-6.3281 25.312-15.797 49.5-27.891 72-4.6875 8.7188-15.609 12-24.328 7.3125s-12-15.609-7.3125-24.328c10.688-19.875 19.031-41.25 24.656-63.703 5.4375-21.703 8.3438-44.531 8.3438-68.109 0-76.969-31.219-146.72-81.656-197.16s-120.14-81.656-197.16-81.656c-76.969 0-146.72 31.219-197.16 81.656s-81.656 120.14-81.656 197.16c0 13.172 0.84375 25.875 2.5312 38.062 1.7344 12.703 4.3125 25.125 7.6875 37.125zm474.42 112.97c6.6562-7.3125 18-7.8281 25.312-1.125 7.3125 6.6562 7.8281 18 1.125 25.312-29.344 32.109-65.25 58.125-105.47 75.797-38.812 17.109-81.75 26.625-126.79 26.625-57.328 0-111.19-15.422-157.6-42.281-48-27.797-87.984-67.922-115.59-116.02-4.9219-8.625-1.9219-19.594 6.6562-24.516 8.625-4.9219 19.594-1.9219 24.516 6.6562 24.469 42.656 59.906 78.188 102.38 102.8 40.969 23.719 88.688 37.359 139.6 37.359 39.984 0 78-8.3906 112.31-23.531 35.766-15.75 67.594-38.766 93.469-67.078zm203.11-429.66c-9.8438 1.2188-18.844-5.8125-20.062-15.656s5.8125-18.844 15.656-20.062c9.0938-1.125 18.516-2.5781 28.125-4.2188 10.219-1.8281 20.672-3.8438 31.266-6.1406 9.7031-2.0625 19.266 4.1719 21.281 13.828 1.3125 6.2344-0.79688 12.469-5.0625 16.594-56.344 62.484-87.75 108.8-81.562 144.28l0.09375 0.42188c6.3281 34.875 51.047 64.406 146.81 95.297 9.4219 3 14.625 13.125 11.625 22.594-1.8281 5.7188-6.2812 9.8906-11.625 11.625-96.094 31.031-140.76 60.656-146.9 95.719-6.1875 35.625 25.5 82.219 82.359 145.13 6.6562 7.3594 6.0469 18.703-1.2656 25.312-4.4062 3.9844-10.312 5.3906-15.75 4.2188-89.438-19.125-144.1-18.844-169.69 6.75l-0.79688 0.75c-24.844 25.875-24.938 80.297-5.9062 168.94 2.0625 9.7031-4.1719 19.266-13.828 21.281-6.2344 1.3125-12.469-0.79688-16.594-5.0625-62.484-56.344-108.8-87.75-144.28-81.562l-0.42188 0.09375c-34.875 6.3281-64.406 51.047-95.297 146.81-3 9.4219-13.125 14.625-22.594 11.625-5.7188-1.8281-9.8906-6.2812-11.625-11.625-31.031-96.094-60.656-140.76-95.719-146.9-35.625-6.1875-82.219 25.5-145.13 82.359-7.3594 6.6562-18.703 6.0469-25.312-1.2656-3.9844-4.4062-5.3906-10.312-4.2188-15.75 19.125-89.438 18.844-144.1-6.75-169.69l-0.75-0.79688c-25.875-24.844-80.297-24.938-168.94-5.9062-9.7031 2.0625-19.266-4.1719-21.281-13.828-1.3125-6.2344 0.79688-12.469 5.0625-16.594 56.344-62.484 87.75-108.8 81.562-144.28l-0.09375-0.42188c-6.3281-34.875-51.047-64.406-146.81-95.297-9.4219-3-14.625-13.125-11.625-22.594 1.8281-5.7188 6.2812-9.8906 11.625-11.625 96.094-31.031 140.76-60.656 146.9-95.719 6.1875-35.625-25.5-82.219-82.359-145.13-6.6562-7.3594-6.0469-18.703 1.2656-25.312 4.4062-3.9844 10.312-5.3906 15.75-4.2188 89.438 19.125 144.1 18.844 169.69-6.75l0.79688-0.75c24.844-25.875 24.938-80.297 5.9062-168.94-2.0625-9.7031 4.1719-19.266 13.828-21.281 6.2344-1.3125 12.469 0.79688 16.594 5.0625 62.484 56.344 108.8 87.75 144.28 81.562l0.42188-0.09375c34.875-6.3281 64.406-51.047 95.297-146.81 3-9.4219 13.125-14.625 22.594-11.625 5.7188 1.8281 9.8906 6.2812 11.625 11.625 31.031 96.094 60.656 140.76 95.719 146.9 35.625 6.1875 82.219-25.5 145.13-82.359 7.3594-6.6562 18.703-6.0469 25.312 1.2656 3.9844 4.4062 5.3906 10.312 4.2188 15.75-7.8281 36.797-12.375 67.828-13.172 93.516-0.75 24.281 1.8281 43.594 8.0625 58.219 3.8906 9.0938-0.375 19.688-9.5156 23.578-9.0938 3.8906-19.688-0.375-23.578-9.5156-8.2969-19.453-11.766-43.734-10.875-73.266 0.46875-15.094 2.0625-31.594 4.6875-49.547-53.016 42.797-96.703 64.781-136.5 57.797-41.859-7.3125-75.703-45.469-106.64-123.42-30.703 77.297-64.266 115.45-105.7 123.19l-0.98438 0.1875c-39.797 6.9375-83.531-15.047-136.55-57.844 10.594 72.656 3.8906 121.55-24.516 150.98l-1.0781 1.1719c-29.344 29.344-78.562 36.328-152.21 25.594 42.797 53.016 64.781 96.75 57.844 136.55-7.3125 41.859-45.469 75.703-123.42 106.64 77.297 30.703 115.45 64.266 123.19 105.7l0.1875 0.98438c6.9375 39.797-15.047 83.531-57.844 136.55 72.656-10.594 121.55-3.8906 150.98 24.516l1.1719 1.0781c29.344 29.344 36.328 78.562 25.594 152.21 53.016-42.797 96.75-64.781 136.55-57.844 41.859 7.3125 75.703 45.469 106.64 123.42 30.703-77.297 64.266-115.45 105.7-123.19l0.98438-0.1875c39.797-6.9375 83.531 15.047 136.55 57.844-10.594-72.656-3.8906-121.55 24.516-150.98l1.0781-1.1719c29.344-29.344 78.562-36.328 152.21-25.594-42.797-53.016-64.781-96.75-57.844-136.55 7.3125-41.859 45.469-75.703 123.42-106.64-77.297-30.703-115.45-64.266-123.19-105.7l-0.1875-0.98438c-6.9375-39.797 15-83.484 57.797-136.45l-12.047 1.6406zm-84.562-0.09375c-9.75-1.7812-16.172-11.156-14.438-20.859 1.7812-9.75 11.156-16.172 20.859-14.438l1.5469 0.28125c9.75 1.7812 16.172 11.156 14.438 20.859-1.7812 9.75-11.156 16.172-20.859 14.438z"/>
</svg>
